<svg width="50" height="50" viewBox="0 0 50 50" fill="none" xmlns="http://www.w3.org/2000/svg">
<g id="noun-reset-password-3728048 2">
<g id="Group">
<path id="Vector" d="M25.3648 11.8336C22.2148 11.8336 19.6511 14.3171 19.6511 17.3696V20.6747C17.917 20.8563 16.5576 22.2735 16.5576 24.0089V32.3068C16.5576 34.1647 18.1096 35.6772 20.0183 35.6772H30.6847C32.5934 35.6772 34.1455 34.1647 34.1455 32.3068V24.0089C34.1455 22.2735 32.7861 20.8563 31.052 20.6747V17.3696C31.052 14.3171 28.5006 11.8336 25.3648 11.8336ZM25.3648 13.5936C27.503 13.5936 29.244 15.2882 29.244 17.3696V20.6385H21.4591V17.3696C21.4591 15.2882 23.2107 13.5936 25.3648 13.5936ZM32.3374 24.0089V32.3068C32.3374 33.1954 31.5958 33.9173 30.6847 33.9173H20.0183C19.1072 33.9173 18.3657 33.1954 18.3657 32.3068V24.0089C18.3657 23.1204 19.1072 22.3985 20.0183 22.3985C22.1263 22.3985 30.8704 22.3983 30.6847 22.3985C31.5958 22.3985 32.3374 23.1204 32.3374 24.0089Z" fill="#F75549"/>
<path id="Vector_2" d="M4.35156 25.1003C4.35156 28.7439 5.35623 32.336 7.25609 35.4881C7.51073 35.909 8.06235 36.0464 8.49382 35.8027C8.92465 35.5552 9.06943 35.0172 8.81694 34.5979C7.07776 31.7156 6.15961 28.4311 6.15961 25.1003C6.15961 14.7898 14.769 6.4025 25.3524 6.4025C28.0485 6.4025 30.6876 6.97042 33.1119 8.02464L31.2321 8.54916C30.7519 8.68322 30.4747 9.16961 30.6124 9.6371C30.7521 10.1153 31.268 10.3743 31.73 10.2404L36.2643 8.9754C36.7428 8.84306 37.02 8.35839 36.8858 7.89262L35.6675 3.64398C35.5333 3.17649 35.0354 2.89978 34.5534 3.03384C34.0731 3.16446 33.7923 3.64913 33.9265 4.11834L34.7074 6.8427C31.8206 5.42735 28.6286 4.64255 25.3524 4.64255C13.7732 4.64255 4.35156 13.8204 4.35156 25.1003Z" fill="#F75549"/>
<path id="Vector_3" d="M25.3526 43.7809C22.5948 43.7809 19.8855 43.1713 17.3913 42.0561L19.6689 41.1805C20.1333 41.0018 20.361 40.4913 20.1774 40.0393C19.9955 39.5873 19.4711 39.3621 19.005 39.5443C18.8222 39.6129 14.7963 41.1013 14.6152 41.2326L14.612 41.2338C14.1355 41.4164 13.9209 41.9384 14.1053 42.3819L15.7968 46.4501C15.9823 46.8938 16.5022 47.1189 16.9745 46.9365C17.4371 46.7543 17.6613 46.2404 17.4742 45.7901L16.571 43.6192C19.3202 44.861 22.3096 45.5409 25.3526 45.5409C36.9318 45.5409 46.3517 36.3716 46.3517 25.1003C46.3517 21.4257 45.347 17.8319 43.4436 14.709C43.1894 14.2897 42.6332 14.1522 42.2059 14.4014C41.7768 14.6489 41.6338 15.1885 41.8898 15.6062C43.6255 18.4575 44.5436 21.7402 44.5436 25.1003C44.5436 35.4005 35.9342 43.7809 25.3526 43.7809Z" fill="#F75549"/>
<path id="Vector_4" d="M25.3614 24.0673C23.737 24.0673 22.4163 25.3529 22.4163 26.9341C22.4163 28.1981 23.2771 29.2603 24.4574 29.6321V31.3684C24.4574 31.8548 24.8617 32.2484 25.3614 32.2484C25.8611 32.2484 26.2654 31.8548 26.2654 31.3684V29.6302C27.435 29.2567 28.2871 28.196 28.2871 26.9341C28.2871 25.3529 26.9752 24.0673 25.3614 24.0673ZM25.3614 28.0238C24.7346 28.0238 24.2243 27.5357 24.2243 26.9341C24.2243 26.3343 24.7452 25.8273 25.3614 25.8273C25.9776 25.8273 26.4791 26.324 26.4791 26.9341C26.4791 27.5357 25.9776 28.0238 25.3614 28.0238Z" fill="#F75549"/>
</g>
</g>
</svg>
